<svg viewBox="0 0 400 400" xmlns="http://www.w3.org/2000/svg">
  <!-- Definitions -->
  <defs>
    <!-- Synthwave Grid -->
    <pattern id="grid" width="40" height="40" patternUnits="userSpaceOnUse">
      <path d="M 40 0 L 0 0 0 40" fill="none" stroke="#2DE2E6" stroke-width="0.5" opacity="0.15"/>
    </pattern>
    
    <!-- Dark Cyber Gradient -->
    <linearGradient id="cyber-gradient" x1="0%" y1="0%" x2="100%" y2="100%">
      <stop offset="0%" style="stop-color:#000000"/>
      <stop offset="50%" style="stop-color:#1A0B2E"/>
      <stop offset="100%" style="stop-color:#000000"/>
    </linearGradient>
    
    <!-- Neon Glow -->
    <filter id="neon-glow">
      <feGaussianBlur stdDeviation="3" result="coloredBlur"/>
      <feMerge>
        <feMergeNode in="coloredBlur"/>
        <feMergeNode in="SourceGraphic"/>
      </feMerge>
    </filter>
  </defs>

  <!-- Background Elements -->
  <circle cx="200" cy="200" r="190" fill="url(#cyber-gradient)"/>
  <circle cx="200" cy="200" r="190" fill="url(#grid)"/>

  <!-- Flower of Life Pattern -->
  <g transform="translate(200 200)" opacity="0.3" stroke="#FF0080" stroke-width="0.5" fill="none">
    <!-- Central Hexagon Pattern -->
    <path d="M 0,-60 A 60,60 0 1,0 0,60 A 60,60 0 1,0 0,-60 Z"/>
    <path d="M -52,-30 A 60,60 0 1,0 52,-30 A 60,60 0 1,0 -52,-30 Z"/>
    <path d="M -52,30 A 60,60 0 1,0 52,30 A 60,60 0 1,0 -52,30 Z"/>
  </g>

  <!-- Metatron's Cube Elements -->
  <g transform="translate(200 200)" filter="url(#neon-glow)">
    <!-- Inner Triangles -->
    <path d="M 0,-70 L 60.62,35 L -60.62,35 Z" 
          fill="none" stroke="#2DE2E6" stroke-width="1" opacity="0.6"/>
    <path d="M 0,70 L 60.62,-35 L -60.62,-35 Z" 
          fill="none" stroke="#2DE2E6" stroke-width="1" opacity="0.6"/>
    
    <!-- Central Hexagon -->
    <path d="M 0,-40 L 34.64,-20 L 34.64,20 L 0,40 L -34.64,20 L -34.64,-20 Z" 
          fill="none" stroke="#FF0080" stroke-width="2"/>
          
    <!-- Connecting Lines with Animation -->
    <g opacity="0.8">
      <path d="M 0,-70 L 0,-40" stroke="#FF0080" stroke-width="1">
        <animate attributeName="stroke-dasharray" values="0,100;100,0" dur="3s" repeatCount="indefinite"/>
      </path>
      <path d="M 60.62,35 L 34.64,20" stroke="#FF0080" stroke-width="1">
        <animate attributeName="stroke-dasharray" values="0,100;100,0" dur="3s" repeatCount="indefinite"/>
      </path>
      <path d="M -60.62,35 L -34.64,20" stroke="#FF0080" stroke-width="1">
        <animate attributeName="stroke-dasharray" values="0,100;100,0" dur="3s" repeatCount="indefinite"/>
      </path>
    </g>
  </g>

  <!-- Golden Spiral Elements -->
  <g transform="translate(200 200)" opacity="0.4" stroke="#2DE2E6" stroke-width="0.5" fill="none">
    <path d="M 0,0 A 80,80 0 0,1 80,80"/>
    <path d="M 0,0 A 60,60 0 0,0 -60,-60"/>
    <path d="M 0,0 A 40,40 0 0,1 40,40"/>
    <path d="M 0,0 A 20,20 0 0,0 -20,-20"/>
  </g>

  <!-- Central Sacred Triangle Pattern -->
  <g transform="translate(200 200)" filter="url(#neon-glow)">
    <!-- Main Triangle -->
    <path d="M 0,-50 L 43.3,25 L -43.3,25 Z" 
          fill="#000000" stroke="#FF0080" stroke-width="3"/>
    
    <!-- Inner Triangles -->
    <path d="M 0,-25 L 21.65,12.5 L -21.65,12.5 Z" 
          fill="#000000" stroke="#2DE2E6" stroke-width="2"/>
    
    <!-- Center Point -->
    <circle cx="0" cy="0" r="3" fill="#FF0080"/>
    
    <!-- Animated Energy Flow -->
    <g opacity="0.6">
      <circle cx="0" cy="0" r="15" fill="none" stroke="#2DE2E6" stroke-width="1">
        <animate attributeName="r" values="15;20;15" dur="2s" repeatCount="indefinite"/>
        <animate attributeName="opacity" values="0.6;0.2;0.6" dur="2s" repeatCount="indefinite"/>
      </circle>
    </g>
  </g>

  <!-- Vesica Piscis Elements -->
  <g transform="translate(200 200)" opacity="0.3">
    <path d="M -30,0 A 30,30 0 0,1 30,0 A 30,30 0 0,1 -30,0" 
          fill="none" stroke="#FF0080" stroke-width="1"/>
    <path d="M 0,-30 A 30,30 0 0,1 0,30 A 30,30 0 0,1 0,-30" 
          fill="none" stroke="#FF0080" stroke-width="1"/>
  </g>

  <!-- Data Flow Lines -->
  <g transform="translate(200 200)" stroke="#2DE2E6" stroke-width="1" opacity="0.4">
    <g>
      <path d="M -100,-100 L -60,-60" stroke-dasharray="4,4">
        <animate attributeName="stroke-dashoffset" from="8" to="0" dur="1s" repeatCount="indefinite"/>
      </path>
      <path d="M 100,-100 L 60,-60" stroke-dasharray="4,4">
        <animate attributeName="stroke-dashoffset" from="8" to="0" dur="1s" repeatCount="indefinite"/>
      </path>
      <path d="M -100,100 L -60,60" stroke-dasharray="4,4">
        <animate attributeName="stroke-dashoffset" from="8" to="0" dur="1s" repeatCount="indefinite"/>
      </path>
      <path d="M 100,100 L 60,60" stroke-dasharray="4,4">
        <animate attributeName="stroke-dashoffset" from="8" to="0" dur="1s" repeatCount="indefinite"/>
      </path>
    </g>
  </g>

  <!-- Logo Text -->
  <g transform="translate(200 200)" text-anchor="middle" filter="url(#neon-glow)">
    <text x="0" y="90" font-family="Arial" font-weight="bold" font-size="60" fill="#2DE2E6">
      MRP
    </text>
    <text x="0" y="120" font-family="Arial" font-size="20" fill="#FF0080">
      MINING RIGHTS PROTOCOL
    </text>
  </g>

  <!-- Outer Ring with Sacred Geometry Points -->
  <g transform="translate(200 200)" opacity="0.4">
    <circle cx="0" cy="0" r="160" fill="none" stroke="#FF0080" stroke-width="0.5"/>
    <circle cx="0" cy="0" r="165" fill="none" stroke="#2DE2E6" stroke-width="0.5"/>
    <!-- Sacred Points -->
    <g fill="#2DE2E6">
      <circle cx="0" cy="-165" r="1"/>
      <circle cx="165" cy="0" r="1"/>
      <circle cx="0" cy="165" r="1"/>
      <circle cx="-165" cy="0" r="1"/>
    </g>
  </g>
</svg>
